<?xml version="1.0" standalone="no"?>
<!DOCTYPE svg PUBLIC "-//W3C//DTD SVG 20010904//EN"
 "http://www.w3.org/TR/2001/REC-SVG-20010904/DTD/svg10.dtd">
<svg version="1.0" xmlns="http://www.w3.org/2000/svg"
 fill="none" height="459" viewBox="0 0 619 459" width="619"
 preserveAspectRatio="xMidYMid meet">

<g transform="translate(0.000000,788.000000) scale(0.100000,-0.100000)"
fill="#000000" stroke="none">
<path d="M7975 7679 l-80 -30 -125 16 -125 16 -714 -240 c-393 -132 -718 -246
-723 -253 -4 -7 -8 -38 -8 -69 l0 -57 -265 -92 c-145 -51 -266 -98 -268 -104
-3 -6 -2 -75 1 -153 l5 -143 -34 -1 c-19 -1 -38 -2 -44 -4 -5 -1 -85 -3 -177
-3 -148 -2 -168 -4 -168 -18 0 -15 22 -16 213 -13 l212 4 6 -100 c3 -55 9
-136 13 -181 l7 -80 -28 -13 c-15 -7 -73 -31 -128 -53 -55 -22 -113 -45 -130
-52 -16 -7 -52 -22 -80 -34 -27 -11 -78 -32 -111 -46 -55 -23 -112 -47 -294
-121 -30 -12 -107 -44 -170 -70 -172 -71 -381 -157 -510 -209 -63 -26 -128
-53 -145 -61 -16 -8 -109 -46 -205 -85 -96 -39 -185 -80 -197 -92 -53 -50 -57
-188 -9 -290 34 -73 109 -156 161 -179 42 -19 104 -25 120 -11 26 22 103 42
126 33 13 -5 85 -28 159 -51 74 -23 141 -43 148 -45 13 -5 11 -109 -12 -534
l-11 -214 -165 -89 c-91 -49 -169 -93 -174 -98 -10 -10 27 -348 44 -410 8 -31
17 -38 72 -59 35 -13 77 -30 93 -37 17 -7 102 -41 190 -74 88 -33 169 -65 180
-70 52 -24 178 -70 192 -70 9 0 67 33 131 73 63 39 117 71 121 70 11 -4 27
-141 19 -164 -5 -13 -5 -34 1 -48 10 -25 22 -139 56 -516 8 -93 24 -264 36
-380 11 -115 20 -234 20 -263 l-1 -53 88 -40 c132 -61 132 -61 136 -83 7 -34
26 -250 26 -288 0 -41 25 -68 63 -68 20 0 33 10 54 41 31 46 31 65 12 269 -8
92 -14 118 -29 130 -16 13 -21 41 -33 192 -15 204 -19 213 -84 204 -24 -3 -43
-2 -43 2 -1 25 -21 255 -26 294 l-6 46 40 -5 c36 -5 41 -2 71 33 l33 39 -7
125 c-13 234 -18 264 -41 274 -19 9 -22 24 -35 219 -13 180 -18 211 -33 223
-21 15 -56 -11 351 248 128 81 237 144 243 141 7 -5 11 -42 11 -99 -1 -50 3
-149 8 -221 6 -71 15 -231 20 -355 6 -124 16 -306 22 -404 6 -99 8 -196 5
-216 -7 -42 7 -59 64 -79 19 -7 44 -17 55 -22 11 -5 38 -15 60 -22 l40 -14 7
-168 c3 -92 11 -172 16 -177 5 -5 25 -11 43 -11 28 -2 36 3 55 38 21 35 22 49
18 140 -8 175 -15 226 -30 232 -11 4 -14 26 -14 93 0 48 -3 129 -7 179 -6 85
-8 94 -30 104 -17 7 -30 7 -49 -2 -15 -6 -28 -10 -29 -9 -2 2 -6 83 -10 180
l-7 177 30 -11 c24 -9 36 -9 56 1 44 24 49 54 41 247 -7 163 -9 177 -27 182
-12 3 -18 11 -15 22 9 35 -10 381 -21 392 -7 7 -12 15 -12 19 0 10 158 109
175 109 34 0 95 -33 99 -54 2 -11 11 -55 20 -96 42 -205 156 -771 156 -779 0
-4 -66 -58 -148 -118 -81 -61 -153 -118 -161 -127 -10 -12 -12 -37 -7 -104 3
-48 7 -141 7 -207 1 -66 6 -132 11 -146 7 -22 28 -33 136 -74 70 -26 141 -53
157 -61 17 -7 129 -51 250 -98 121 -47 249 -96 284 -110 36 -15 76 -26 89 -26
l25 0 -7 -597 c-3 -329 -9 -608 -12 -621 -10 -35 15 -54 152 -113 l127 -54 -6
-174 c-3 -96 -1 -184 3 -197 11 -27 55 -42 79 -27 9 5 25 27 36 49 20 42 21
61 17 619 -1 176 -2 192 -20 209 -13 11 -32 16 -53 14 -29 -3 -36 -9 -52 -48
-18 -45 -18 -45 -12 175 3 121 5 322 5 448 0 175 3 227 13 227 9 0 11 -46 9
-208 -4 -229 -1 -242 56 -242 40 0 53 13 74 67 15 41 18 78 18 243 0 108 -4
200 -9 205 -5 6 -6 97 -2 212 l6 202 183 165 c101 91 185 166 188 166 3 0 2
-33 0 -72 -3 -40 -13 -262 -21 -493 -9 -231 -20 -463 -25 -515 l-10 -95 27
-22 c14 -12 36 -24 47 -26 12 -3 57 -19 101 -35 l80 -30 0 -53 c0 -30 -3 -111
-7 -181 l-8 -128 25 -16 c35 -23 73 -11 90 29 15 37 39 363 29 401 -3 14 -1
105 6 201 14 196 12 205 -46 205 -55 0 -66 -29 -74 -186 -4 -74 -11 -138 -15
-142 -4 -4 -4 38 -1 93 4 55 11 197 16 315 6 118 13 260 16 315 3 55 9 160 13
234 4 102 9 135 20 139 12 4 13 -9 7 -79 -3 -46 -9 -137 -13 -201 -7 -133 -1
-148 53 -148 68 0 80 63 88 465 2 121 8 264 12 317 l7 98 124 111 c69 61 127
108 129 106 3 -2 0 -64 -6 -138 -5 -74 -16 -235 -25 -359 -30 -446 -43 -598
-49 -608 -8 -13 16 -27 87 -52 112 -39 152 -53 155 -56 2 -1 -2 -77 -9 -168
-12 -160 -12 -167 7 -181 28 -22 67 -15 81 15 11 23 38 303 42 430 1 30 6 105
11 165 6 61 10 122 10 138 l0 27 192 -2 191 -3 -2 -73 c-3 -80 7 -102 44 -102
33 0 45 21 56 95 5 37 12 72 16 78 4 7 157 8 485 4 467 -6 478 -6 478 13 0 19
-14 19 -482 20 -265 0 -483 1 -484 3 -1 1 2 31 6 67 5 36 16 154 26 264 18
194 17 199 -1 212 -24 18 -49 18 -64 0 -10 -12 -41 -228 -41 -288 0 -10 -6
-18 -13 -18 -10 0 -9 35 5 178 9 97 26 272 38 387 46 472 42 445 60 445 6 0 8
-21 5 -57 -7 -72 -25 -229 -30 -265 -5 -34 17 -58 55 -58 37 0 46 17 54 100 4
36 11 97 16 135 5 39 11 112 14 164 3 52 13 158 23 237 l17 144 53 45 c29 26
53 40 53 33 0 -7 -5 -51 -10 -98 -18 -149 -51 -441 -65 -580 -8 -74 -19 -173
-25 -220 -5 -47 -10 -92 -10 -101 0 -14 39 -29 180 -69 33 -9 36 -43 15 -188
-15 -107 -15 -115 1 -133 42 -47 79 -9 88 91 8 84 22 190 46 371 23 168 25
220 8 237 -16 16 -53 15 -66 0 -6 -7 -17 -73 -26 -147 -8 -74 -20 -139 -26
-145 -5 -5 -10 -20 -10 -32 0 -40 -20 -43 -105 -18 -87 26 -101 35 -92 58 8
20 34 20 80 1 20 -8 55 -15 77 -15 38 0 40 2 40 29 0 17 9 101 20 188 10 87
26 221 35 298 35 302 54 448 59 453 16 15 16 -18 0 -157 -19 -177 -16 -201 25
-201 39 0 47 13 60 105 11 75 19 145 56 475 9 74 19 142 23 151 4 8 105 104
224 213 179 163 218 203 222 229 34 214 44 304 36 317 -3 5 -33 17 -65 25 -33
9 -61 18 -64 20 -5 6 -20 220 -20 305 -1 64 0 65 37 91 33 24 352 270 445 344
58 46 80 90 80 160 1 94 -54 173 -136 197 -23 6 -48 16 -54 21 -15 11 -164 40
-294 57 -53 7 -101 15 -107 19 -10 6 4 130 16 143 6 5 462 68 495 68 4 0 7 7
7 15 0 8 -3 15 -6 15 -3 0 -114 -14 -246 -31 -131 -17 -242 -29 -245 -26 -3 3
-1 42 4 86 5 44 6 89 1 100 -23 63 -386 83 -417 22 -10 -19 -28 -137 -36 -243
-6 -64 -10 -78 -23 -78 -22 1 -185 24 -347 49 -71 12 -173 28 -225 36 -151 24
-361 56 -407 62 -43 6 -43 6 -43 47 0 22 7 136 17 252 9 115 14 217 11 225 -6
14 -54 23 -363 64 -138 18 -456 61 -597 80 -59 8 -113 15 -120 14 -7 0 -49
-14 -93 -30z m-292 -106 c-7 -2 -19 -2 -25 0 -7 3 -2 5 12 5 14 0 19 -2 13 -5z
m84 -29 c-3 -3 -12 -4 -19 -1 -8 3 -5 6 6 6 11 1 17 -2 13 -5z m2531 -369 c2
-25 2 -25 -34 -10 -20 8 -39 15 -43 15 -19 1 28 20 49 20 20 0 26 -5 28 -25z
m286 -5 c14 -14 6 -18 -54 -24 -30 -3 -47 -3 -37 0 16 5 21 16 18 41 -2 14 56
0 73 -17z m-135 4 c2 -2 -14 -4 -37 -4 -23 0 -42 4 -42 9 0 9 69 4 79 -5z
m-24 -50 c53 -4 106 -2 129 4 l39 11 -6 -69 c-3 -39 -8 -74 -12 -80 -3 -5 -32
-12 -65 -16 -42 -5 -60 -11 -60 -21 0 -11 12 -13 60 -7 33 4 60 3 60 -2 0 -13
-29 -248 -39 -317 -4 -32 -13 -63 -19 -69 -7 -7 -58 -15 -114 -18 -78 -5 -96
-8 -74 -14 41 -12 165 2 201 22 29 17 31 23 44 120 l14 102 66 -6 c36 -4 76
-10 88 -15 11 -4 49 -11 82 -15 l61 -7 -23 -41 c-17 -31 -29 -42 -52 -44 -16
-2 -47 -17 -68 -34 -21 -17 -82 -60 -135 -96 -92 -62 -175 -118 -322 -221 -36
-24 -101 -69 -145 -99 -44 -31 -114 -78 -155 -107 -41 -28 -133 -91 -205 -140
-71 -48 -166 -113 -210 -144 -202 -139 -433 -297 -535 -365 -41 -28 -77 -53
-80 -56 -3 -3 -34 -25 -70 -49 -87 -59 -195 -134 -305 -210 -49 -34 -128 -88
-175 -119 -47 -31 -89 -60 -95 -65 -9 -7 -124 -86 -389 -267 -45 -31 -123 -85
-174 -120 -51 -36 -99 -69 -106 -74 -9 -6 -55 3 -137 27 -68 20 -191 55 -274
77 -82 23 -249 70 -370 104 -121 35 -258 73 -305 85 -47 13 -103 29 -125 36
-40 13 -224 65 -445 126 -63 17 -128 35 -145 39 -16 5 -61 18 -100 29 -38 11
-119 34 -180 51 -60 17 -141 39 -180 50 -38 10 -142 39 -230 65 -87 25 -175
50 -195 54 -51 13 -350 98 -460 132 -202 61 -276 80 -300 75 -14 -2 -41 -1
-60 3 l-35 8 45 12 c25 7 52 19 60 25 27 23 44 30 35 16 -5 -8 1 -7 16 3 13 9
34 17 47 17 13 0 21 4 18 9 -3 5 4 11 17 14 51 13 126 44 120 50 -3 4 1 7 11
7 9 0 45 13 81 29 35 16 66 27 68 24 3 -2 23 8 46 22 22 15 45 24 52 19 8 -4
9 -3 5 4 -5 8 1 12 17 12 14 0 30 7 37 15 7 8 16 13 20 10 5 -3 12 0 15 6 4 5
13 8 20 6 6 -3 31 6 55 19 23 13 49 24 59 24 9 0 25 7 35 15 11 8 28 15 38 15
10 0 18 5 18 11 0 5 4 7 10 4 5 -3 10 -2 10 3 0 5 32 19 70 32 39 13 70 27 70
31 0 5 7 5 17 2 9 -4 14 -2 10 4 -3 5 15 15 42 22 27 7 65 21 85 32 20 11 41
17 45 14 5 -3 11 2 14 10 3 7 23 17 44 21 20 4 44 13 51 21 7 7 22 13 33 13
10 0 19 5 19 11 0 7 10 9 25 7 13 -3 22 -1 19 3 -3 5 4 9 15 9 12 0 21 4 21 9
0 5 13 14 29 19 22 8 31 7 34 -2 8 -21 17 -113 26 -264 5 -79 12 -147 17 -152
8 -8 239 -71 329 -89 22 -5 92 -22 155 -38 63 -17 249 -63 413 -104 l298 -74
32 19 c18 10 57 32 87 49 30 16 82 45 115 63 33 18 71 39 85 46 22 11 473 255
605 328 52 28 124 67 260 140 44 23 85 46 90 50 6 4 48 27 95 52 187 100 257
137 515 278 105 57 202 110 216 117 50 25 52 35 70 265 10 121 19 221 21 223
2 2 60 -5 128 -16 69 -11 168 -26 220 -33 52 -8 109 -17 125 -20 17 -3 75 -12
130 -20 204 -30 242 -36 328 -52 l88 -17 -3 -130 -3 -130 35 -18 c19 -10 55
-21 80 -24 38 -5 41 -4 20 6 -66 29 -95 46 -93 56 1 6 5 37 8 69 3 33 12 113
20 179 18 149 25 210 29 255 2 19 4 37 5 39 0 2 22 1 49 -3 26 -4 88 -9 137
-12z m489 -438 c-6 -16 -24 -23 -24 -8 0 10 22 33 27 28 2 -2 1 -11 -3 -20z
m193 -44 c55 -69 56 -125 3 -161 -19 -14 -37 -27 -40 -31 -3 -4 -12 -11 -21
-16 -9 -5 -32 -21 -50 -36 -19 -15 -63 -48 -99 -75 -36 -26 -66 -51 -68 -55
-2 -5 -8 -8 -14 -8 -5 0 -15 -6 -22 -12 -7 -7 -28 -24 -46 -38 -18 -14 -57
-44 -86 -67 -29 -24 -55 -43 -58 -43 -3 0 -49 -33 -101 -72 -52 -40 -114 -88
-138 -105 -24 -18 -54 -42 -67 -53 -13 -11 -27 -20 -31 -20 -4 0 -14 -6 -21
-13 -7 -7 -24 -20 -37 -30 -14 -9 -41 -30 -60 -47 -20 -16 -76 -59 -126 -94
-49 -36 -94 -69 -100 -73 -5 -5 -37 -29 -70 -53 -33 -25 -67 -53 -76 -62 -9
-10 -21 -18 -26 -18 -5 0 -23 -13 -39 -30 -16 -16 -33 -30 -38 -30 -4 0 -37
-22 -72 -50 -35 -27 -68 -50 -73 -50 -6 0 -14 -6 -18 -13 -4 -8 -35 -33 -68
-57 -33 -24 -67 -49 -75 -57 -8 -7 -82 -62 -165 -123 -175 -128 -192 -141
-237 -180 -18 -17 -47 -37 -65 -45 -18 -9 -35 -20 -38 -25 -4 -6 -41 -36 -83
-67 -42 -31 -83 -61 -90 -67 -7 -6 -18 -15 -25 -21 -7 -5 -32 -23 -56 -40 -25
-16 -56 -41 -70 -54 -15 -13 -37 -31 -51 -40 -37 -24 -179 -128 -194 -143 -7
-7 -41 -33 -75 -58 -34 -25 -88 -65 -121 -90 -32 -25 -68 -52 -80 -60 -12 -8
-43 -31 -69 -51 -25 -20 -52 -34 -59 -31 -7 2 -13 -2 -11 -9 5 -43 -4 -37 -26
15 -34 82 -89 159 -146 205 -38 30 -45 40 -33 45 9 3 20 4 25 0 5 -3 9 0 9 5
0 6 17 22 38 36 52 34 174 121 189 134 7 6 15 11 18 11 6 0 156 110 165 121 3
3 20 14 38 23 17 9 32 21 32 26 0 6 5 10 10 10 9 0 66 36 80 50 3 3 16 13 30
22 14 10 63 44 110 77 47 33 116 81 154 107 38 25 104 73 147 105 43 33 82 59
88 59 5 0 16 8 23 18 7 9 27 24 43 32 17 8 32 17 35 20 9 9 84 65 102 75 9 6
47 32 85 59 37 27 111 79 163 115 52 35 97 68 100 71 3 4 48 35 100 71 52 35
100 68 106 74 7 5 24 19 40 30 15 11 33 26 40 33 7 6 17 12 22 12 19 0 93 61
86 72 -4 7 -3 8 4 4 11 -6 169 96 218 141 14 12 27 22 30 21 4 0 32 17 63 40
31 22 106 75 166 117 61 43 114 83 118 91 4 8 15 14 23 14 8 0 27 11 42 25 15
14 47 38 72 52 25 15 64 40 86 57 23 17 54 40 70 51 15 11 32 25 38 31 6 6 18
9 26 6 8 -3 12 -1 8 3 -7 8 33 45 49 45 4 0 19 10 33 23 14 12 45 35 69 51 25
16 50 33 55 37 91 73 100 77 135 63 19 -8 40 -22 48 -32z m-6952 -1271 c50
-12 99 -26 110 -31 11 -5 119 -36 240 -70 121 -34 234 -66 252 -71 18 -5 40
-12 50 -14 10 -3 65 -19 123 -35 58 -17 134 -39 170 -49 210 -57 267 -74 283
-82 10 -5 22 -7 27 -4 6 4 10 2 10 -4 0 -5 8 -8 18 -7 9 2 24 -1 32 -5 26 -14
134 -44 148 -41 6 2 12 -2 12 -8 0 -5 9 -10 21 -10 11 0 30 -5 41 -11 16 -9
23 -8 29 2 5 9 9 9 9 3 0 -7 53 -26 118 -44 64 -18 135 -38 157 -45 22 -6 76
-22 120 -35 44 -12 87 -25 95 -28 8 -3 24 -7 35 -9 11 -2 54 -14 95 -27 41
-13 86 -27 100 -31 14 -3 59 -15 100 -26 41 -12 105 -28 142 -38 37 -9 70 -20
74 -24 4 -4 20 -7 35 -7 15 0 31 -5 34 -10 4 -6 11 -8 16 -4 5 3 15 1 22 -4 7
-6 46 -20 87 -31 41 -11 125 -34 185 -51 61 -17 126 -35 145 -39 19 -4 45 -13
56 -19 12 -6 24 -9 27 -6 3 3 11 3 17 -1 7 -5 3 -17 -13 -38 -65 -87 -117
-257 -117 -385 0 -24 -3 -31 -12 -25 -7 4 -15 8 -18 8 -3 0 -18 5 -35 11 -16
7 -66 22 -110 34 -44 13 -125 38 -180 55 -55 18 -116 36 -135 40 -19 4 -39 11
-45 15 -5 4 -28 11 -50 15 -45 9 -44 9 -65 18 -33 15 -176 57 -191 57 -9 0
-38 9 -65 19 -27 11 -103 35 -169 55 -66 20 -165 50 -220 67 -55 17 -104 32
-110 33 -11 2 -182 56 -275 86 -76 24 -184 57 -250 77 -30 9 -64 19 -75 24
-11 4 -36 10 -55 13 -19 4 -48 13 -64 21 -15 8 -34 15 -40 15 -6 0 -45 11 -86
24 -200 63 -309 96 -345 105 -22 5 -53 14 -70 20 -47 17 -195 63 -372 116
l-162 48 -6 51 c-13 102 -85 246 -141 283 -26 17 -28 21 -15 41 7 11 18 9 59
-12 28 -14 56 -26 62 -26 17 0 11 29 -9 42 -11 6 -17 18 -13 26 4 11 1 13 -8
7 -9 -5 -11 -4 -6 4 5 7 16 9 28 5 16 -5 19 -3 12 7 -6 10 -2 10 16 -2 14 -8
66 -25 115 -38z m-283 -60 c115 -73 188 -266 140 -373 -17 -39 -25 -46 -56
-52 -37 -7 -97 7 -123 28 -41 33 -76 78 -105 131 -30 54 -33 68 -33 145 0 75
3 89 24 118 33 43 87 45 153 3z m6393 -548 c-2 -16 -7 -59 -11 -98 -9 -88 -8
-83 -18 -128 -8 -34 -40 -67 -53 -53 -3 3 2 62 10 131 13 105 19 131 38 151
29 31 40 30 34 -3z m-5500 -79 c154 -47 300 -91 325 -98 86 -24 93 -32 88 -87
-3 -27 -8 -52 -11 -55 -5 -5 -194 50 -262 77 -11 4 -78 25 -150 48 -71 22
-170 53 -220 69 l-90 29 -3 42 c-4 55 3 74 25 67 10 -3 144 -44 298 -92z
m5412 2 c-3 -8 -9 -46 -13 -85 -5 -50 -11 -71 -20 -71 -17 0 -17 12 -3 101 9
49 16 69 27 69 8 0 12 -6 9 -14z m-4904 -166 c24 0 21 -17 -5 -26 -12 -3 -28
-13 -36 -20 -23 -24 -32 -16 -32 30 l0 45 28 -15 c15 -7 35 -14 45 -14z m4790
14 c53 -8 77 -21 77 -40 0 -8 5 -12 10 -9 6 3 10 1 10 -5 0 -7 -6 -10 -14 -7
-7 3 -18 1 -24 -5 -12 -12 -158 18 -169 35 -8 14 37 49 55 42 7 -3 32 -8 55
-11z m157 -84 c0 -11 -5 -20 -10 -20 -6 0 -5 -8 2 -20 10 -15 9 -43 -5 -137
-9 -65 -17 -130 -17 -144 0 -32 -23 -44 -50 -27 -17 11 -18 21 -13 93 3 44 10
88 14 97 5 9 9 39 9 67 0 44 3 51 20 51 22 0 27 16 8 23 -10 3 -10 7 1 20 19
23 41 21 41 -3z m-2764 -32 c-8 -13 -30 -49 -48 -80 -18 -32 -38 -58 -45 -58
-17 0 -28 -21 -14 -29 9 -6 8 -24 -4 -72 -8 -35 -15 -92 -15 -127 0 -46 -3
-63 -12 -60 -9 3 -14 31 -16 81 -5 123 46 263 120 336 37 36 58 41 34 9z
m2315 -185 c-6 -59 -12 -125 -14 -146 -2 -30 -9 -43 -29 -55 -15 -9 -30 -13
-33 -10 -4 4 0 68 8 144 14 130 16 138 43 159 16 13 31 22 32 20 2 -2 -1 -52
-7 -112z m-2141 56 c0 -4 12 -10 26 -13 32 -8 102 -77 133 -130 30 -53 39
-129 18 -151 -15 -14 -18 -13 -32 21 -8 20 -15 38 -15 41 0 2 -15 28 -34 57
-37 58 -74 98 -121 133 -24 18 -26 22 -11 23 11 0 16 5 13 13 -3 8 1 14 9 14
8 0 14 -4 14 -8z m-75 -49 c103 -57 173 -147 195 -250 37 -176 -70 -289 -233
-247 -69 18 -133 62 -174 120 -29 39 -31 46 -18 57 12 10 19 10 33 -3 16 -15
17 -7 17 146 0 204 3 212 84 204 31 -2 74 -15 96 -27z m2131 -32 c-14 -114
-18 -128 -33 -128 -9 0 -13 6 -9 18 2 9 8 46 11 82 8 71 11 80 27 80 6 0 8
-19 4 -52z m-2852 -162 c466 -144 440 -134 484 -194 37 -49 108 -111 142 -125
12 -4 12 -6 -2 -6 -10 -1 -35 5 -55 13 -21 8 -96 32 -168 55 -71 22 -229 72
-350 110 -121 39 -233 73 -248 77 -16 4 -32 16 -36 28 -13 32 -23 116 -15 116
4 0 115 -33 248 -74z m2747 32 c34 -7 64 -19 66 -26 7 -18 -15 -65 -27 -57 -5
3 -44 15 -87 26 -43 11 -80 22 -82 25 -8 8 43 55 56 50 6 -3 40 -11 74 -18z
m-3306 -58 c3 -5 -2 -11 -12 -11 -15 -1 -15 -2 -2 -6 17 -4 24 -69 31 -281 3
-80 -10 -102 -58 -102 -21 0 -22 5 -29 125 -9 151 -4 247 14 269 15 18 47 21
56 6z m3135 -47 c0 -21 -5 -78 -10 -128 -30 -285 -75 -804 -72 -818 1 -4 -3
-17 -9 -29 -19 -35 5 -64 70 -83 31 -9 77 -24 104 -33 l47 -16 0 -52 c0 -90
20 -84 -266 -84 l-254 0 0 38 c0 20 7 109 15 197 7 88 19 229 25 313 5 85 13
158 16 164 18 28 20 -24 7 -177 -8 -93 -12 -179 -8 -192 6 -24 43 -40 70 -29
30 11 43 71 54 256 7 102 19 270 27 374 l15 190 77 72 c42 40 80 73 85 74 4 0
7 -17 7 -37z m330 23 c0 -8 -5 -18 -10 -21 -8 -5 -7 -11 0 -21 16 -18 -15
-325 -33 -336 -17 -11 -22 -10 -39 10 -13 14 -14 33 -6 127 16 186 18 197 35
191 12 -5 14 -1 9 20 -5 18 -3 30 6 35 20 13 38 11 38 -5z m-533 -326 c-14
-141 -17 -155 -38 -171 -39 -30 -52 -24 -45 19 3 20 8 75 11 122 4 47 9 99 11
115 6 34 54 89 66 77 5 -5 3 -77 -5 -162z m918 69 c4 -12 1 -82 -6 -156 -11
-124 -14 -136 -36 -150 -13 -9 -26 -13 -29 -11 -2 3 3 68 12 144 12 102 20
143 32 153 16 13 16 13 0 8 -13 -5 -18 -1 -18 13 0 27 37 26 45 -1z m-1010
-86 c-8 -92 -10 -103 -25 -103 -5 0 -7 36 -4 83 7 95 9 107 25 107 8 0 9 -25
4 -87z m-3045 50 c25 -9 61 -19 80 -22 29 -5 36 -11 38 -35 2 -16 0 -32 -5
-37 -9 -9 -159 35 -177 51 -10 9 0 60 12 60 4 0 27 -8 52 -17z m219 -124 c-12
-23 -37 -25 -46 -3 -9 23 25 48 43 33 10 -8 11 -16 3 -30z m2676 -13 c19 -8
54 -18 79 -21 44 -7 45 -8 39 -39 -3 -17 -10 -34 -15 -37 -10 -6 -172 42 -185
54 -5 6 34 57 44 57 2 0 19 -6 38 -14z m-2631 -158 c5 -94 3 -148 -3 -152 -6
-4 -11 19 -14 61 -3 62 -3 59 -5 -23 -2 -75 -5 -93 -19 -98 -9 -4 -21 -2 -26
3 -10 10 -29 329 -20 344 2 4 15 7 28 7 22 0 24 -5 28 -57 l3 -58 2 70 c3 118
19 59 26 -97z m2846 48 c0 -13 -6 -27 -12 -29 -10 -4 -10 -8 1 -16 13 -8 13
-28 3 -138 -7 -70 -12 -147 -12 -169 0 -33 -4 -43 -19 -47 -35 -9 -51 23 -51
102 0 53 3 70 12 65 8 -5 9 -2 4 11 -4 11 -4 54 0 97 6 67 9 78 25 78 11 0 19
5 19 10 0 6 -4 10 -10 10 -17 0 -11 28 8 39 26 16 32 13 32 -13z m-3812 -8
c-5 -15 -68 -42 -68 -29 0 5 7 17 16 25 18 19 58 22 52 4z m12 -55 c0 -17 12
-160 25 -294 l5 -55 -35 -17 c-36 -17 -65 -22 -65 -11 0 4 -7 83 -16 177 -8
93 -13 176 -10 183 5 12 52 31 84 33 6 1 12 -7 12 -16z m4708 0 c-4 -22 -38
-30 -38 -10 0 14 13 24 33 26 5 1 7 -7 5 -16z m-2 -95 c-13 -130 -30 -220 -43
-225 -7 -3 -19 2 -27 9 -12 13 -13 34 -4 134 11 124 19 144 61 144 17 0 18 -6
13 -62z m-437 -37 c11 -7 12 -31 7 -125 -9 -143 -24 -204 -53 -224 -22 -14
-23 -13 -23 21 0 41 18 230 25 264 3 12 13 24 23 26 13 4 11 5 -5 6 -26 1 -29
11 -11 29 14 14 19 15 37 3z m-1095 -118 c-14 -261 -13 -253 -47 -274 -18 -10
-36 -19 -40 -19 -7 0 -2 196 8 293 3 30 50 87 71 87 10 0 12 -21 8 -87z
m-3351 -40 c79 -28 98 -49 84 -88 -5 -13 -11 -13 -44 0 -21 7 -60 22 -88 32
-49 19 -63 37 -51 69 7 19 9 19 99 -13z m3243 -34 c-3 -34 -6 -77 -6 -95 0
-19 -4 -34 -10 -34 -12 0 -13 41 -4 129 4 33 11 61 17 61 6 0 7 -23 3 -61z
m-3036 -83 c0 -14 -5 -28 -10 -31 -17 -11 -50 5 -50 24 0 24 9 31 37 31 18 0
23 -6 23 -24z m3976 4 c6 -6 42 -17 80 -24 64 -12 69 -14 66 -37 -1 -13 -6
-27 -10 -31 -10 -10 -185 46 -190 61 -11 33 30 55 54 31z m-3912 -290 c7 -60
-6 -97 -24 -70 -8 12 -9 9 -6 -10 4 -30 -10 -50 -35 -50 -11 0 -20 9 -23 23
-4 18 -21 206 -29 312 -2 27 1 30 28 30 29 0 30 -2 36 -50 7 -57 12 -50 10 14
0 24 5 51 12 59 10 12 13 -5 19 -94 3 -60 9 -134 12 -164z m2876 238 c77 -18
81 -22 67 -61 -6 -17 -13 -34 -14 -36 -2 -4 -185 60 -196 69 -5 4 2 18 15 30
24 23 23 23 128 -2z m1270 -57 c0 -24 -12 -32 -30 -21 -11 7 -11 11 -1 24 18
22 31 20 31 -3z m-1092 -53 c-2 -17 -11 -24 -30 -26 -32 -4 -39 21 -10 37 29
17 44 13 40 -11z m-2202 -18 c1 -14 5 -92 9 -175 l7 -150 -36 -16 c-20 -9 -38
-13 -41 -10 -2 4 -7 78 -11 164 l-7 157 24 9 c18 7 20 10 6 10 -15 1 -16 4 -7
22 16 29 53 22 56 -11z m3294 -25 l0 -55 -35 0 c-34 0 -35 1 -35 39 0 57 8 71
41 71 28 0 29 -1 29 -55z m-1097 -125 c-1 -69 -5 -153 -8 -187 -6 -57 -9 -63
-30 -63 -44 0 -48 17 -40 199 7 162 8 170 29 174 51 10 51 10 49 -123z m512 8
c-3 -18 -9 -86 -14 -151 -9 -111 -14 -137 -26 -125 -3 2 0 73 7 156 9 115 15
152 25 152 10 0 12 -9 8 -32z m70 24 c6 -4 11 -16 13 -27 2 -22 -16 -277 -23
-311 -4 -19 -52 -50 -62 -41 -2 2 3 76 12 163 8 88 15 170 15 183 0 38 19 52
45 33z m500 -54 c-3 -35 -9 -71 -11 -80 -6 -21 -39 -24 -51 -5 -8 12 -5 125 4
140 2 4 18 7 35 7 l30 0 -7 -62z m-3406 -114 c37 -6 41 -9 41 -35 0 -33 -13
-43 -37 -30 -10 6 -45 21 -78 33 -39 15 -61 29 -63 42 -6 30 18 36 59 16 20
-11 56 -22 78 -26z m1568 -146 c-4 -73 -7 -157 -7 -185 0 -51 -1 -53 -40 -73
-21 -11 -42 -20 -45 -20 -3 0 -5 76 -5 169 l0 169 40 36 c22 20 45 36 51 36 9
0 10 -37 6 -132z m-1427 56 c0 -20 -29 -30 -43 -15 -9 10 -8 16 7 26 21 16 36
11 36 -11z m2534 -39 c41 -14 84 -25 95 -25 22 0 25 -10 15 -47 -7 -27 -15
-28 -57 -9 -18 7 -60 24 -94 36 -44 16 -63 28 -63 40 0 37 8 37 104 5z m-2505
-13 c-2 -15 0 -33 5 -40 4 -7 5 -16 1 -20 -3 -3 -10 0 -15 8 -6 10 -8 -29 -6
-105 3 -134 1 -145 -24 -145 -15 0 -18 15 -25 103 -10 130 -12 189 -7 205 6
18 40 15 45 -5 4 -15 6 -15 12 5 10 30 17 28 14 -6z m9 -164 l-2 -83 -5 75
c-3 41 -5 78 -3 83 9 21 12 -1 10 -75z m2702 68 c0 -19 -17 -29 -37 -22 -12 5
-13 9 -3 21 16 19 40 19 40 1z m1 -40 c5 -5 -2 -109 -16 -243 -6 -61 -10 -73
-25 -73 -10 0 -22 6 -27 13 -14 17 -4 239 10 230 6 -4 8 8 4 35 -5 40 -4 42
22 42 15 0 30 -2 32 -4z m-1542 -37 c24 -10 56 -19 72 -19 18 0 29 -5 29 -14
0 -16 -20 -76 -26 -76 -12 0 -201 74 -209 82 -7 6 0 18 20 34 32 25 40 25 114
-7z m-2063 -44 c6 -55 24 -290 24 -318 0 -23 -7 -31 -35 -43 -19 -7 -38 -14
-43 -14 -8 0 -33 237 -32 308 0 20 6 35 16 39 10 4 12 8 5 12 -18 11 18 53 41
49 15 -2 22 -12 24 -33z m2272 -82 c-2 -22 -9 -29 -30 -31 -33 -4 -39 23 -10
44 28 22 44 17 40 -13z m11 -151 c-2 -186 -12 -284 -31 -296 -13 -8 -21 -6
-36 7 -18 17 -20 33 -20 201 l-1 183 31 1 c16 0 32 3 35 6 16 16 23 -15 22
-102z m721 83 c0 -16 -35 -38 -54 -33 -10 2 -11 10 -5 26 10 26 59 32 59 7z
m-5 -233 l-7 -133 -29 -14 c-45 -24 -49 -20 -44 43 3 31 7 105 11 163 3 58 9
110 12 115 4 5 18 14 32 20 24 11 25 9 28 -25 2 -20 1 -96 -3 -169z m-3201
119 c17 -11 50 -25 74 -32 38 -11 42 -15 42 -45 0 -38 6 -39 -112 15 -49 22
-68 35 -68 49 0 37 18 41 64 13z m226 -147 c-16 -19 -36 -18 -44 2 -4 9 -5 18
-4 19 2 1 12 7 23 13 25 13 43 -11 25 -34z m2756 -43 c33 -11 72 -21 86 -21
25 0 26 -1 15 -35 -6 -19 -14 -35 -17 -35 -10 0 -137 47 -177 66 -34 15 -42
41 -21 62 9 9 16 9 32 -2 12 -7 48 -23 82 -35z m-2702 -8 c20 -170 18 -262 -5
-247 -5 3 -12 -8 -15 -25 -5 -24 -12 -31 -29 -31 -22 0 -24 5 -31 88 -4 48 -8
121 -8 162 -1 74 -1 75 24 75 24 0 25 -3 31 -75 l6 -75 1 75 c1 101 1 100 11
100 5 0 12 -21 15 -47z m2906 -91 c0 -22 -28 -45 -46 -38 -18 7 -18 9 5 27 24
20 41 24 41 11z m-4 -194 c-4 -79 -8 -151 -10 -161 -7 -47 -56 -47 -57 0 0 25
-1 26 -10 8 -8 -17 -9 -17 -5 5 3 14 8 72 11 130 4 58 11 107 17 111 5 3 9 9
9 13 -4 28 1 36 25 36 l27 0 -7 -142z m-859 -195 c-2 -16 -4 -5 -4 22 0 28 2
40 4 28 2 -13 2 -35 0 -50z m133 12 c10 -12 6 -18 -22 -35 -42 -25 -48 -25
-48 3 0 42 44 63 70 32z m6 -91 c-3 -26 -6 -104 -6 -174 l0 -128 -36 -21 c-19
-12 -40 -21 -46 -21 -7 0 -8 55 -4 177 4 97 8 178 9 178 1 1 13 9 27 18 13 9
33 17 44 17 17 0 18 -5 12 -46z m-301 -198 c34 -23 137 -57 155 -51 10 3 21 2
24 -3 4 -7 -8 -55 -20 -80 -4 -7 -217 93 -221 105 -15 37 24 56 62 29z m285
-156 c0 -24 -22 -35 -47 -25 -16 6 -16 8 6 26 30 24 41 24 41 -1z m-52 -147
l2 97 31 0 32 0 -7 -61 c-3 -34 -6 -110 -6 -170 0 -100 -2 -108 -20 -114 -45
-14 -50 6 -48 184 2 153 2 158 8 66 l6 -100 2 98z"/>
<path d="M3832 5118 c5 -61 12 -78 28 -62 11 11 -6 94 -22 109 -7 7 -9 -7 -6
-47z"/>
<path d="M9661 3714 c0 -11 3 -14 6 -6 3 7 2 16 -1 19 -3 4 -6 -2 -5 -13z"/>
<path d="M9122 3325 c0 -16 2 -22 5 -12 2 9 2 23 0 30 -3 6 -5 -1 -5 -18z"/>
<path d="M10021 3214 c0 -11 3 -14 6 -6 3 7 2 16 -1 19 -3 4 -6 -2 -5 -13z"/>
<path d="M5427 2790 c3 -11 7 -20 9 -20 2 0 4 9 4 20 0 11 -4 20 -9 20 -5 0
-7 -9 -4 -20z"/>
<path d="M5443 2700 c0 -30 2 -43 4 -27 2 15 2 39 0 55 -2 15 -4 2 -4 -28z"/>
<path d="M8453 2560 c0 -25 2 -35 4 -22 2 12 2 32 0 45 -2 12 -4 2 -4 -23z"/>
<path d="M9552 2655 c0 -16 2 -22 5 -12 2 9 2 23 0 30 -3 6 -5 -1 -5 -18z"/>
<path d="M9012 1975 c0 -16 2 -22 5 -12 2 9 2 23 0 30 -3 6 -5 -1 -5 -18z"/>
<path d="M5532 1530 c0 -14 2 -19 5 -12 2 6 2 18 0 25 -3 6 -5 1 -5 -13z"/>
<path d="M12194 7172 c-68 -10 -95 -125 -43 -178 35 -34 90 -36 125 -3 25 24
32 49 13 49 -6 0 -20 -11 -31 -25 -39 -50 -101 -17 -101 53 0 72 57 108 98 62
18 -20 45 -27 45 -12 0 14 -43 49 -65 53 -11 3 -30 3 -41 1z"/>
<path d="M11258 7159 c-19 -10 -25 -49 -8 -49 5 0 14 9 20 20 14 26 46 26 60
0 9 -17 2 -28 -45 -80 -30 -33 -55 -64 -55 -70 0 -6 30 -10 71 -10 52 0 70 3
67 13 -3 6 -24 14 -47 17 l-42 5 40 40 c64 62 53 126 -21 125 -13 0 -31 -5
-40 -11z"/>
<path d="M11424 7162 c-35 -23 -45 -111 -19 -162 21 -41 67 -44 98 -8 22 26
24 124 1 156 -15 22 -57 30 -80 14z m55 -26 c19 -23 10 -127 -12 -140 -26 -16
-47 16 -47 72 0 70 29 104 59 68z"/>
<path d="M11550 7070 c0 -82 3 -100 15 -100 12 0 15 16 16 78 l0 77 28 -75
c16 -41 35 -76 42 -78 10 -2 23 22 39 70 l25 73 3 -72 c2 -56 6 -73 17 -73 12
0 15 19 15 101 0 97 -1 100 -22 97 -17 -2 -27 -19 -48 -83 l-27 -80 -27 83
c-24 73 -30 82 -52 82 -24 0 -24 -1 -24 -100z"/>
<path d="M11770 7168 c1 -15 50 -191 54 -195 16 -16 35 13 51 76 11 39 22 71
25 71 4 0 15 -34 25 -75 27 -106 45 -102 75 13 13 48 25 93 28 100 2 6 -3 12
-12 12 -15 0 -27 -30 -42 -108 -7 -33 -24 -45 -24 -16 0 9 -7 40 -16 70 -23
81 -45 74 -74 -23 l-23 -78 -9 40 c-24 101 -29 115 -43 115 -8 0 -15 -1 -15
-2z"/>
<path d="M12330 7070 c0 -81 3 -100 15 -100 10 0 15 15 17 58 3 54 4 57 31 60
27 3 27 3 27 -57 0 -48 3 -61 15 -61 12 0 15 13 15 59 0 71 -18 96 -62 87 -26
-5 -28 -3 -28 24 0 20 -5 30 -15 30 -12 0 -15 -18 -15 -100z"/>
<path d="M12497 7102 c-10 -10 -17 -22 -17 -25 0 -12 23 -7 41 9 14 12 22 13
38 4 31 -16 26 -27 -15 -33 -45 -8 -64 -23 -64 -54 0 -28 34 -45 66 -32 12 4
31 5 43 2 19 -5 21 -1 21 49 0 68 -19 98 -64 98 -19 0 -40 -8 -49 -18z m74
-84 c-11 -31 -61 -38 -61 -9 0 14 8 21 28 24 15 2 30 5 34 6 4 0 4 -9 -1 -21z"/>
<path d="M12640 7045 c0 -59 3 -75 15 -75 10 0 15 15 17 58 3 51 5 57 26 60
36 5 20 27 -21 29 l-37 2 0 -74z"/>
<path d="M12746 7101 c-24 -26 -23 -86 0 -113 14 -15 27 -19 51 -15 33 6 39 1
25 -19 -13 -19 -41 -23 -56 -9 -16 17 -36 20 -36 6 0 -19 32 -41 60 -41 55 0
73 37 68 140 l-3 64 -46 3 c-35 2 -50 -1 -63 -16z m80 -33 c9 -28 -3 -65 -23
-73 -24 -9 -56 31 -47 59 13 45 57 55 70 14z"/>
<path d="M12901 7094 c-45 -57 -13 -128 56 -122 20 2 41 10 47 20 15 24 0 34
-22 15 -25 -23 -49 -21 -62 3 -10 19 -8 20 40 20 60 0 73 18 43 58 -29 39 -74
41 -102 6z m83 -19 c4 -12 -3 -15 -34 -15 -31 0 -38 3 -34 15 4 8 18 15 34 15
16 0 30 -7 34 -15z"/>
<path d="M13045 7112 c-3 -3 -5 -36 -5 -74 0 -54 3 -68 15 -68 11 0 15 11 15
38 0 56 10 82 31 82 11 0 19 7 19 15 0 10 -10 14 -35 13 -19 -1 -37 -4 -40 -6z"/>
<path d="M4215 6652 c-28 -6 -55 -32 -55 -53 0 -21 45 -59 70 -59 28 0 61 -32
51 -49 -15 -24 -71 -18 -92 10 -13 18 -21 21 -29 13 -15 -15 26 -62 55 -65 57
-4 87 10 99 48 9 29 -20 59 -73 73 -46 12 -58 25 -41 45 18 21 58 18 72 -5 15
-23 38 -27 38 -7 0 30 -54 57 -95 49z"/>
<path d="M2166 6634 c-20 -20 -21 -44 -1 -44 8 0 15 6 15 14 0 20 38 30 55 16
25 -21 17 -38 -40 -94 -30 -29 -55 -58 -55 -64 0 -8 24 -12 71 -12 52 0 70 3
67 13 -3 6 -24 13 -47 15 l-43 3 46 49 c50 54 54 65 30 98 -18 26 -74 30 -98
6z"/>
<path d="M2334 6642 c-35 -23 -45 -111 -19 -162 21 -41 67 -44 98 -8 22 26 24
124 1 156 -15 22 -57 30 -80 14z m55 -26 c19 -23 10 -127 -12 -140 -26 -16
-47 16 -47 72 0 70 29 104 59 68z"/>
<path d="M2460 6550 c0 -82 3 -100 15 -100 12 0 15 16 16 78 l0 77 28 -75 c16
-41 35 -76 43 -78 9 -2 22 21 38 70 l25 73 3 -72 c2 -56 6 -73 17 -73 12 0 15
19 15 101 0 97 -1 100 -22 97 -17 -2 -27 -19 -48 -83 l-27 -80 -27 83 c-24 73
-30 82 -52 82 -24 0 -24 -1 -24 -100z"/>
<path d="M2708 6551 c20 -78 30 -101 43 -101 13 0 21 17 33 68 10 37 20 73 25
80 4 7 15 -20 26 -64 17 -67 35 -97 51 -82 5 5 54 177 54 191 0 4 -6 7 -14 7
-10 0 -20 -25 -32 -75 -10 -41 -19 -73 -21 -71 -2 2 -11 34 -21 72 -14 55 -22
70 -39 72 -17 3 -23 -6 -39 -67 -10 -39 -20 -71 -24 -71 -3 0 -12 30 -20 67
-11 48 -20 69 -32 71 -14 3 -13 -8 10 -97z"/>
<path d="M2960 6550 c0 -81 3 -100 15 -100 10 0 15 15 17 58 3 54 4 57 31 60
27 3 27 3 27 -57 0 -48 3 -61 15 -61 12 0 15 14 15 65 0 55 -3 66 -21 75 -11
7 -32 9 -45 6 -21 -6 -24 -3 -24 24 0 20 -5 30 -15 30 -12 0 -15 -18 -15 -100z"/>
<path d="M3200 6550 l0 -100 58 0 c44 0 63 5 75 18 22 24 22 50 0 74 -13 14
-14 21 -5 30 36 36 -4 78 -76 78 l-52 0 0 -100z m105 45 c0 -16 -8 -21 -37
-23 -35 -3 -38 -1 -38 23 0 24 3 26 38 23 29 -2 37 -7 37 -23z m5 -70 c21 -26
4 -45 -40 -45 -38 0 -40 2 -40 30 0 27 3 30 34 30 18 0 39 -7 46 -15z"/>
<path d="M3537 6611 c-8 -16 -11 -33 -6 -38 4 -4 9 -33 11 -63 3 -52 5 -55 31
-58 15 -2 27 1 27 7 0 6 -7 11 -15 11 -11 0 -15 12 -15 50 0 28 5 50 10 50 6
0 10 7 10 15 0 8 -4 15 -10 15 -5 0 -10 9 -10 20 0 29 -16 25 -33 -9z"/>
<path d="M3620 6620 c0 -11 -4 -20 -10 -20 -5 0 -10 -7 -10 -15 0 -8 4 -15 10
-15 5 0 10 -26 12 -57 3 -51 6 -58 26 -61 12 -2 22 1 22 7 0 6 -4 11 -10 11
-5 0 -10 23 -10 50 0 28 5 50 10 50 6 0 10 7 10 15 0 8 -4 15 -10 15 -5 0 -10
9 -10 20 0 11 -7 20 -15 20 -8 0 -15 -9 -15 -20z"/>
<path d="M4350 6620 c0 -11 -4 -20 -10 -20 -5 0 -10 -7 -10 -15 0 -8 4 -15 10
-15 5 0 10 -26 12 -57 3 -51 6 -58 26 -61 12 -2 22 1 22 7 0 6 -4 11 -10 11
-5 0 -10 23 -10 50 0 28 5 50 10 50 6 0 10 7 10 15 0 8 -4 15 -10 15 -5 0 -10
9 -10 20 0 11 -7 20 -15 20 -8 0 -15 -9 -15 -20z"/>
<path d="M3398 6589 c-10 -5 -18 -17 -18 -24 0 -19 5 -19 34 0 25 17 56 11 56
-10 0 -7 -16 -15 -36 -18 -42 -7 -64 -23 -64 -47 0 -25 25 -43 58 -41 15 1 38
2 52 2 24 0 25 2 22 62 -2 42 -9 66 -20 75 -19 14 -60 15 -84 1z m72 -83 c0
-19 -26 -38 -47 -34 -27 5 -22 31 7 39 37 10 40 10 40 -5z"/>
<path d="M3713 6585 c-35 -25 -36 -104 0 -127 23 -14 74 -8 91 11 22 24 3 39
-20 17 -21 -22 -51 -20 -64 4 -10 19 -8 20 45 20 51 0 55 2 55 23 0 28 -38 67
-66 67 -11 0 -29 -7 -41 -15z m77 -35 c0 -6 -16 -10 -35 -10 -38 0 -46 13 -18
29 19 10 53 -2 53 -19z"/>
<path d="M3850 6524 c0 -53 3 -75 12 -72 6 2 12 25 13 51 1 50 9 63 38 69 15
2 24 -11 42 -60 25 -63 24 -92 -1 -92 -8 0 -14 -7 -14 -16 0 -10 7 -14 23 -12
17 2 28 19 53 83 45 115 49 128 33 123 -8 -3 -23 -28 -35 -57 l-21 -52 -19 53
c-17 46 -23 53 -49 55 -16 1 -35 -3 -42 -9 -9 -7 -13 -7 -13 1 0 6 -4 11 -10
11 -6 0 -10 -32 -10 -76z"/>
<path d="M4443 6585 c-27 -19 -38 -67 -22 -97 16 -31 28 -38 65 -38 40 0 64
27 64 73 0 65 -57 97 -107 62z m77 -58 c0 -37 -15 -57 -42 -57 -38 0 -51 70
-16 94 31 22 58 4 58 -37z"/>
<path d="M4580 6524 c0 -58 3 -74 15 -74 10 0 15 15 17 58 3 51 5 57 26 60 36
5 20 27 -21 28 l-37 1 0 -73z"/>
<path d="M4687 6582 c-21 -23 -21 -32 -2 -32 8 0 15 4 15 9 0 13 27 21 45 15
29 -11 15 -32 -25 -39 -47 -8 -67 -34 -50 -65 9 -16 20 -19 68 -18 l58 1 -4
61 c-2 34 -9 67 -14 74 -16 18 -72 15 -91 -6z m69 -97 c-3 -8 -17 -15 -31 -15
-37 0 -35 38 3 42 29 3 37 -4 28 -27z"/>
<path d="M4839 6579 c-23 -23 -25 -76 -3 -108 13 -18 24 -22 50 -19 37 4 47
-14 17 -31 -13 -7 -26 -5 -45 7 -34 20 -48 9 -23 -18 23 -26 69 -26 95 0 17
17 20 33 20 103 l0 84 -46 1 c-32 0 -51 -5 -65 -19z m77 -34 c8 -32 2 -56 -18
-68 -24 -16 -48 8 -48 49 0 54 53 69 66 19z"/>
<path d="M5003 6585 c-35 -25 -36 -104 0 -127 23 -15 74 -8 92 12 31 34 7 39
-36 8 -20 -14 -49 -4 -49 17 0 11 12 15 50 15 46 0 50 2 50 23 0 28 -38 67
-66 67 -11 0 -29 -7 -41 -15z m77 -35 c0 -6 -16 -10 -35 -10 -38 0 -46 13 -18
29 19 10 53 -2 53 -19z"/>
<path d="M10776 2794 c-20 -20 -21 -44 -1 -44 8 0 15 6 15 14 0 20 38 30 55
16 24 -20 18 -35 -40 -93 -30 -30 -55 -60 -55 -66 0 -7 26 -11 71 -11 52 0 70
3 67 13 -3 6 -24 13 -47 15 l-43 3 46 49 c50 54 54 65 30 98 -18 26 -74 30
-98 6z"/>
<path d="M10936 2791 c-40 -44 -27 -158 20 -180 33 -15 69 6 85 47 14 35 4
110 -18 134 -21 23 -65 23 -87 -1z m73 -36 c21 -42 4 -119 -26 -123 -30 -4
-47 38 -39 97 9 67 39 79 65 26z"/>
<path d="M11080 2711 c0 -83 3 -101 15 -101 12 0 15 15 16 68 l1 67 22 -65
c31 -89 48 -89 78 -3 l23 68 3 -67 c2 -52 6 -68 17 -68 12 0 15 19 15 100 0
91 -2 100 -19 100 -15 0 -25 -18 -47 -80 l-29 -80 -26 77 c-20 62 -30 79 -47
81 -21 3 -22 0 -22 -97z"/>
<path d="M11294 2794 c4 -9 16 -55 28 -101 16 -64 24 -83 38 -83 13 0 22 17
35 68 10 37 21 71 25 75 4 5 16 -24 26 -64 16 -63 35 -92 50 -77 5 5 54 177
54 191 0 4 -6 7 -14 7 -9 0 -20 -27 -33 -77 l-19 -77 -20 74 c-16 60 -24 76
-41 78 -17 3 -23 -7 -39 -67 -10 -39 -20 -71 -24 -71 -3 0 -12 30 -20 67 -12
52 -19 69 -34 71 -15 3 -17 0 -12 -14z"/>
<path d="M11640 2795 c0 -10 10 -15 30 -15 l30 0 0 -85 c0 -69 3 -85 15 -85
12 0 15 16 15 85 l0 85 35 0 c24 0 35 5 35 15 0 12 -16 15 -80 15 -64 0 -80
-3 -80 -15z"/>
<path d="M12060 2711 l0 -99 36 -4 c50 -6 77 11 88 55 13 50 -16 92 -63 92
-27 0 -31 3 -31 27 0 18 -5 28 -15 28 -12 0 -15 -18 -15 -99z m96 -7 c10 -38
-11 -76 -39 -72 -17 2 -23 11 -25 36 -5 47 3 62 32 62 19 0 27 -7 32 -26z"/>
<path d="M12210 2795 c0 -8 7 -15 15 -15 8 0 15 7 15 15 0 8 -7 15 -15 15 -8
0 -15 -7 -15 -15z"/>
<path d="M12670 2710 c0 -81 3 -100 15 -100 11 0 15 17 17 72 l3 71 48 -71
c66 -101 77 -97 77 28 0 82 -3 100 -15 100 -12 0 -15 -15 -15 -72 l0 -72 -51
72 c-70 100 -79 96 -79 -28z"/>
<path d="M13043 2803 c-7 -3 -13 -13 -13 -24 0 -10 -4 -19 -10 -19 -5 0 -10
-7 -10 -15 0 -8 4 -15 10 -15 5 0 10 -26 12 -57 3 -56 4 -58 33 -61 27 -2 28
-1 13 11 -20 16 -26 107 -8 107 6 0 10 7 10 15 0 8 -4 15 -9 15 -5 0 -11 11
-13 23 -2 14 -8 22 -15 20z"/>
<path d="M13550 2710 c0 -82 3 -100 15 -100 10 0 15 10 15 29 0 44 15 46 39 6
11 -19 27 -35 36 -35 20 0 19 4 -12 51 l-26 40 28 29 c25 26 26 30 10 30 -10
0 -32 -12 -47 -27 l-28 -27 0 52 c0 40 -4 52 -15 52 -12 0 -15 -18 -15 -100z"/>
<path d="M11810 2696 c0 -69 11 -87 52 -87 13 0 33 1 46 1 21 0 22 4 22 75 0
60 -3 75 -15 75 -11 0 -15 -13 -15 -54 0 -56 -17 -83 -45 -72 -11 4 -15 21
-15 66 0 47 -3 60 -15 60 -12 0 -15 -14 -15 -64z"/>
<path d="M11968 2742 c-2 -8 -1 -41 0 -73 3 -43 8 -59 18 -59 10 0 14 14 14
55 0 50 2 56 26 65 34 13 22 30 -21 28 -21 -1 -35 -7 -37 -16z"/>
<path d="M12217 2753 c-4 -3 -7 -37 -7 -75 0 -54 3 -68 15 -68 12 0 15 15 15
75 0 69 -6 86 -23 68z"/>
<path d="M12280 2685 c0 -59 3 -75 15 -75 10 0 15 15 17 58 3 53 5 57 28 57
23 0 25 -4 28 -57 2 -43 7 -58 17 -58 22 0 21 113 -1 134 -18 19 -55 21 -72 4
-9 -9 -12 -9 -12 0 0 7 -4 12 -10 12 -6 0 -10 -32 -10 -75z"/>
<path d="M12448 2743 c-24 -29 -29 -54 -17 -90 10 -33 43 -51 79 -44 18 3 50
31 50 43 0 13 -22 9 -41 -8 -20 -18 -59 -11 -59 12 0 10 13 14 50 14 47 0 50
2 50 25 0 54 -78 87 -112 48z m80 -30 c2 -9 -8 -13 -32 -13 -34 0 -44 8 -29
24 11 11 56 2 61 -11z"/>
<path d="M12881 2734 c-42 -53 -15 -124 46 -126 35 -1 63 16 63 38 0 18 -14
18 -30 -1 -18 -21 -47 -19 -60 5 -10 19 -8 20 45 20 47 0 55 3 55 19 0 32 -39
71 -70 71 -19 0 -36 -9 -49 -26z m83 -19 c4 -12 -3 -15 -34 -15 -31 0 -38 3
-34 15 4 8 18 15 34 15 16 0 30 -7 34 -15z"/>
<path d="M13090 2749 c0 -31 35 -131 47 -136 19 -7 23 -2 38 54 7 26 14 41 14
33 3 -39 23 -90 37 -90 15 0 23 16 48 98 12 43 13 52 1 52 -7 0 -21 -23 -31
-52 -9 -29 -19 -48 -20 -43 -2 6 -8 29 -14 53 -15 57 -34 53 -52 -10 l-15 -53
-14 49 c-13 45 -39 75 -39 45z"/>
<path d="M13321 2742 c-23 -18 -30 -59 -17 -99 13 -40 83 -48 113 -12 23 29
20 82 -7 109 -25 25 -61 26 -89 2z m74 -56 c0 -46 -23 -68 -49 -47 -16 14 -22
72 -9 85 4 4 19 6 33 4 22 -3 25 -8 25 -42z"/>
<path d="M13460 2684 c0 -58 3 -74 15 -74 10 0 15 15 17 58 3 51 5 57 26 60
36 5 20 27 -21 28 l-37 1 0 -73z"/>
<path d="M945 1605 c-77 -46 -160 -94 -185 -108 -25 -14 -92 -54 -150 -89
l-105 -64 0 -339 0 -339 80 -49 c44 -27 176 -105 293 -173 l212 -123 213 123
c116 68 248 146 292 173 l80 49 0 339 0 339 -105 63 c-58 35 -112 67 -120 72
-31 20 -353 206 -359 208 -3 1 -69 -36 -146 -82z m420 -127 l265 -153 0 -316
c0 -242 -3 -319 -12 -327 -30 -23 -519 -302 -530 -302 -7 1 -130 69 -273 153
l-260 152 -2 320 -3 320 263 152 c144 84 268 153 275 153 7 0 132 -69 277
-152z"/>
<path d="M890 1454 c-102 -62 -209 -128 -237 -145 l-53 -30 0 -280 0 -279 78
-46 c42 -25 151 -90 240 -145 90 -54 168 -99 172 -99 5 0 80 43 167 96 87 53
195 119 241 146 l82 49 0 279 0 279 -82 49 c-46 27 -154 92 -242 145 -87 54
-164 97 -170 96 -6 0 -94 -52 -196 -115z m384 -37 c94 -57 192 -117 219 -133
l47 -29 0 -177 0 -178 -55 0 c-48 0 -70 -7 -152 -50 -53 -28 -103 -50 -111
-48 -18 3 -22 19 -51 186 -11 61 -23 117 -26 122 -9 14 -99 12 -113 -2 -7 -7
-12 -26 -13 -42 -1 -51 -35 -191 -45 -189 -5 1 -36 14 -69 27 -69 29 -145 33
-217 11 l-48 -14 0 177 0 177 217 133 c119 72 224 132 232 132 8 0 91 -47 185
-103z m-141 -364 c7 -36 4 -38 -33 -23 -36 15 -38 23 -7 38 32 16 34 15 40
-15z m-41 -49 l31 -16 -43 -19 c-23 -10 -44 -19 -46 -19 -6 0 -5 37 2 54 8 20
17 20 56 0z m62 -60 c3 -9 6 -25 6 -36 0 -21 -15 -21 -75 2 -34 13 -32 25 8
38 46 14 54 14 61 -4z m-14 -90 c0 -6 -11 -16 -25 -22 -20 -9 -34 -8 -65 4
-39 16 -46 27 -34 57 5 13 14 12 65 -6 32 -12 59 -27 59 -33z m-161 -18 c211
-98 246 -109 341 -110 76 -1 92 2 147 30 56 28 62 29 66 12 5 -16 -31 -45
-118 -93 -11 -7 -43 -26 -71 -43 -83 -52 -112 -45 -369 84 l-150 76 -75 -5
c-41 -2 -83 -8 -92 -12 -16 -6 -18 -1 -18 44 l0 50 48 16 c86 27 152 16 291
-49z m191 -21 c0 -8 -7 -15 -15 -15 -16 0 -20 12 -8 23 11 12 23 8 23 -8z"/>
<path d="M1909 1293 c-81 -50 -83 -207 -4 -259 61 -40 154 -22 198 37 45 62
25 182 -37 220 -39 24 -121 25 -157 2z m126 -58 c33 -32 35 -100 4 -139 -45
-57 -129 -18 -129 61 0 88 71 133 125 78z"/>
<path d="M2192 1298 c-7 -7 -12 -20 -12 -30 0 -10 -9 -26 -20 -35 -24 -21 -26
-41 -5 -49 12 -5 15 -24 15 -85 l0 -79 35 0 35 0 0 80 0 80 35 0 35 0 0 -80 0
-80 30 0 30 0 0 80 c0 73 2 80 20 80 15 0 20 7 20 25 0 19 -5 25 -21 25 -14 0
-19 5 -17 17 2 10 12 18 23 18 13 0 21 8 23 23 3 20 -1 22 -40 22 -51 0 -68
-13 -68 -52 0 -25 -3 -28 -36 -28 -29 0 -35 3 -32 18 2 9 10 16 18 14 14 -3
30 15 30 36 0 16 -82 16 -98 0z"/>
<path d="M2492 1298 c-40 -20 -67 -76 -66 -141 1 -68 21 -103 78 -131 45 -22
93 -16 135 19 42 36 46 61 10 74 -27 9 -31 8 -41 -15 -12 -26 -45 -39 -76 -30
-25 8 -42 47 -42 97 0 67 65 113 103 74 9 -8 17 -20 19 -26 2 -6 14 -8 31 -4
36 9 35 37 -4 69 -24 20 -41 26 -77 25 -26 0 -57 -5 -70 -11z"/>
<path d="M2720 1165 l0 -145 30 0 c30 0 30 1 30 54 0 63 12 101 34 109 30 12
46 -20 46 -94 l0 -69 30 0 30 0 0 76 c0 72 -10 111 -34 126 -16 11 -64 10 -87
-2 -18 -10 -19 -7 -19 40 0 49 -1 50 -30 50 l-30 0 0 -145z"/>
<path d="M3030 1232 c-24 -4 -70 -38 -70 -53 0 -16 51 -19 67 -4 18 19 48 16
48 -4 0 -8 -20 -20 -47 -28 -62 -18 -85 -50 -66 -89 18 -37 59 -50 98 -31 16
9 30 11 30 6 0 -5 13 -9 28 -9 l28 0 -4 88 c-3 56 -9 93 -19 103 -15 18 -53
26 -93 21z m50 -131 c0 -25 -14 -41 -36 -41 -17 0 -24 6 -24 19 0 11 6 22 13
24 21 9 47 7 47 -2z"/>
<path d="M3190 1124 l0 -104 30 0 30 0 0 69 c0 72 14 99 45 87 15 -6 38 30 29
46 -3 4 -34 7 -69 7 l-65 0 0 -105z"/>
<path d="M3366 1211 c-42 -47 -38 -144 7 -176 26 -18 78 -20 95 -3 9 9 12 6
12 -15 0 -34 -34 -44 -75 -23 -35 18 -65 21 -65 5 0 -71 158 -91 188 -24 7 15
12 74 12 139 l0 114 -79 0 c-64 1 -82 -3 -95 -17z m99 -37 c37 -38 0 -124 -42
-98 -26 16 -30 84 -7 101 23 17 29 16 49 -3z"/>
<path d="M3619 1217 c-46 -35 -54 -128 -15 -174 33 -38 102 -40 140 -4 32 31
32 37 1 45 -17 4 -31 1 -41 -9 -20 -19 -38 -19 -54 0 -18 22 -12 24 58 26 l62
2 0 33 c0 20 -10 44 -26 63 -21 26 -33 31 -67 31 -23 0 -49 -6 -58 -13z m79
-39 c21 -21 13 -35 -23 -36 -39 -2 -48 19 -17 37 22 13 26 13 40 -1z"/>
<path d="M1877 850 c-50 -39 -45 -132 9 -160 31 -17 77 -17 109 0 20 11 25 21
25 52 l0 39 -42 -3 c-50 -4 -66 -28 -18 -28 40 0 38 -29 -3 -43 -56 -18 -103
42 -75 100 10 22 21 29 51 31 26 2 39 -1 43 -12 8 -20 34 -21 34 -2 0 22 -40
46 -76 46 -17 0 -43 -9 -57 -20z"/>
<path d="M2050 775 c0 -75 3 -95 14 -95 11 0 14 17 14 78 0 85 -5 112 -19 112
-5 0 -9 -43 -9 -95z"/>
<path d="M2250 776 l0 -94 36 -4 c49 -6 84 22 84 66 0 47 -26 79 -61 74 -26
-4 -29 -2 -29 24 0 18 -5 28 -15 28 -12 0 -15 -17 -15 -94z m88 -9 c2 -10 1
-30 -2 -43 -10 -37 -50 -29 -54 9 -2 16 -1 35 2 44 8 20 50 12 54 -10z"/>
<path d="M2540 775 c0 -78 3 -95 15 -95 12 0 15 17 15 95 0 78 -3 95 -15 95
-12 0 -15 -17 -15 -95z"/>
<path d="M2702 852 c-44 -34 -44 -124 -1 -158 43 -34 118 -15 139 37 38 91
-63 179 -138 121z m98 -27 c19 -23 16 -81 -5 -105 -22 -24 -43 -25 -73 -4 -24
17 -30 70 -12 105 13 23 72 26 90 4z"/>
<path d="M2887 863 c-4 -3 -7 -15 -7 -25 0 -10 -4 -18 -10 -18 -5 0 -10 -7
-10 -15 0 -8 5 -15 10 -15 6 0 10 -25 10 -55 0 -42 3 -55 15 -55 12 0 15 13
15 55 0 42 3 55 15 55 12 0 15 -13 15 -55 0 -42 3 -55 15 -55 12 0 15 13 15
55 0 42 3 55 15 55 21 0 19 30 -2 31 -15 0 -14 3 5 16 29 20 28 33 -3 33 -17
0 -29 -8 -37 -25 -6 -14 -17 -25 -25 -25 -18 0 -17 16 2 24 8 3 15 10 15 16 0
11 -43 14 -53 3z"/>
<path d="M3140 775 c0 -76 3 -95 14 -95 11 0 16 15 18 53 3 48 5 52 28 52 23
0 25 -4 28 -52 2 -38 7 -53 18 -53 10 0 14 13 14 53 0 63 -23 93 -65 85 -22
-5 -25 -2 -25 23 0 19 -5 29 -15 29 -12 0 -15 -17 -15 -95z"/>
<path d="M3773 858 c-45 -22 -56 -116 -18 -158 35 -38 113 -29 133 15 17 36
-4 41 -32 8 -21 -24 -27 -26 -52 -18 -63 22 -52 127 14 133 22 2 34 -2 38 -12
8 -20 34 -21 34 -2 0 36 -70 57 -117 34z"/>
<path d="M3920 775 c0 -76 3 -95 14 -95 11 0 16 15 18 53 3 48 5 52 28 52 23
0 25 -4 28 -52 2 -38 7 -53 18 -53 10 0 14 13 14 53 0 64 -23 93 -65 83 -23
-6 -25 -4 -25 24 0 20 -5 30 -15 30 -12 0 -15 -17 -15 -95z"/>
<path d="M4440 855 c0 -8 7 -15 15 -15 8 0 15 7 15 15 0 8 -7 15 -15 15 -8 0
-15 -7 -15 -15z"/>
<path d="M4867 863 c-4 -3 -7 -46 -7 -95 0 -81 2 -88 20 -88 16 0 20 7 20 34
0 31 2 34 40 39 23 3 47 11 55 17 23 19 19 66 -7 84 -22 16 -108 22 -121 9z
m111 -47 c5 -23 -14 -36 -50 -36 -25 0 -28 4 -28 31 0 29 2 30 37 27 28 -2 39
-8 41 -22z"/>
<path d="M5030 775 c0 -78 3 -95 15 -95 12 0 15 17 15 95 0 78 -3 95 -15 95
-12 0 -15 -17 -15 -95z"/>
<path d="M5323 853 c-15 -44 -53 -52 -53 -12 0 10 -4 19 -9 19 -14 0 -40 -57
-30 -67 4 -4 9 -30 11 -58 3 -43 6 -50 26 -53 12 -2 22 1 22 7 0 6 -4 11 -10
11 -16 0 -12 87 4 93 22 8 26 -2 26 -60 0 -40 4 -53 15 -53 12 0 15 13 15 55
0 42 3 55 15 55 21 0 19 30 -2 31 -15 0 -14 3 5 16 29 20 28 33 -3 33 -15 0
-28 -7 -32 -17z"/>
<path d="M2117 802 c-21 -23 -22 -86 -1 -106 26 -27 71 -24 97 6 53 62 -41
161 -96 100z m80 -40 c8 -33 -8 -57 -38 -57 -20 0 -25 6 -27 35 -6 58 51 78
65 22z"/>
<path d="M2407 802 c-21 -23 -21 -32 -2 -32 8 0 15 4 15 9 0 12 35 20 50 11
17 -11 3 -30 -21 -30 -34 0 -59 -19 -59 -46 0 -25 34 -48 54 -36 5 3 22 5 37
4 29 -1 29 0 29 58 0 48 -4 61 -19 70 -30 15 -66 12 -84 -8z m73 -66 c0 -20
-16 -36 -36 -36 -25 0 -34 24 -11 33 15 7 47 8 47 3z"/>
<path d="M3022 808 c-28 -28 -9 -61 41 -73 15 -4 26 -12 24 -19 -6 -18 -37
-19 -50 -2 -7 9 -17 12 -24 8 -10 -7 -10 -12 1 -27 15 -21 67 -25 90 -5 29 23
13 70 -23 70 -25 0 -44 17 -36 29 5 9 13 8 30 -3 27 -18 44 -4 25 19 -15 18
-61 20 -78 3z"/>
<path d="M3300 800 c-26 -26 -26 -81 0 -105 27 -24 70 -22 92 5 38 47 9 120
-47 120 -14 0 -34 -9 -45 -20z m80 -49 c0 -36 -25 -59 -48 -44 -24 14 -28 64
-6 80 25 18 54 -1 54 -36z"/>
<path d="M3430 748 c0 -54 3 -68 15 -68 11 0 15 12 15 50 0 45 3 52 26 60 34
13 22 30 -21 28 l-35 -1 0 -69z"/>
<path d="M3530 800 c-61 -61 20 -163 86 -107 23 20 25 25 10 30 -10 4 -19 1
-22 -8 -7 -18 -35 -20 -52 -3 -22 22 -13 28 38 28 42 0 50 3 50 18 0 27 -37
62 -65 62 -14 0 -34 -9 -45 -20z m80 -30 c0 -6 -16 -10 -35 -10 -38 0 -46 13
-18 29 19 10 53 -2 53 -19z"/>
<path d="M4082 808 c-12 -12 -17 -38 -7 -38 3 0 16 7 28 15 14 8 28 11 36 6
19 -12 4 -31 -24 -31 -25 0 -55 -24 -55 -43 0 -25 19 -39 46 -38 16 1 40 2 54
2 24 0 25 2 22 57 -2 31 -9 63 -14 70 -13 15 -70 16 -86 0z m66 -85 c-4 -23
-58 -31 -58 -9 0 15 14 24 43 25 12 1 17 -5 15 -16z"/>
<path d="M4210 750 c0 -54 3 -70 14 -70 11 0 16 15 18 53 3 46 6 52 26 55 36
5 20 27 -21 29 l-37 2 0 -69z"/>
<path d="M4305 798 c-36 -52 -4 -126 50 -116 17 4 25 1 25 -9 0 -21 -28 -27
-56 -13 -33 18 -44 3 -15 -21 17 -14 33 -18 50 -14 46 12 51 23 51 109 l0 82
-45 2 c-36 1 -47 -3 -60 -20z m73 -49 c2 -27 -1 -38 -14 -43 -23 -9 -44 11
-44 44 0 33 8 42 35 38 15 -2 21 -12 23 -39z"/>
<path d="M4440 750 c0 -56 3 -70 15 -70 12 0 15 14 15 70 0 56 -3 70 -15 70
-12 0 -15 -14 -15 -70z"/>
<path d="M4500 748 c0 -53 3 -68 14 -68 11 0 16 15 18 52 2 42 7 54 22 56 25
5 36 -14 36 -65 0 -24 5 -43 10 -43 15 0 12 116 -3 128 -7 6 -32 10 -55 9
l-42 -1 0 -68z"/>
<path d="M4656 801 c-40 -44 -6 -129 49 -119 20 4 25 2 23 -11 -3 -18 -58 -29
-58 -12 0 6 -7 11 -15 11 -23 0 -18 -18 9 -35 29 -19 72 -11 86 15 6 10 10 52
10 93 l0 74 -44 1 c-30 1 -49 -4 -60 -17z m72 -47 c3 -34 -17 -58 -42 -48 -10
4 -16 18 -16 38 0 39 7 48 35 44 14 -2 21 -12 23 -34z"/>
<path d="M5106 804 c-20 -20 -20 -34 -1 -34 8 0 15 4 15 9 0 17 34 22 49 7 16
-17 9 -22 -38 -28 -13 -2 -30 -13 -38 -25 -13 -19 -12 -24 7 -43 15 -15 27
-19 43 -14 12 4 32 7 45 6 20 -2 22 2 22 52 0 63 -16 86 -60 86 -16 0 -36 -7
-44 -16z m74 -72 c0 -14 -23 -32 -42 -32 -20 0 -25 26 -5 33 20 8 47 8 47 -1z"/>
<path d="M5395 800 c-24 -26 -25 -85 -2 -107 20 -21 73 -21 93 -1 21 21 20 84
-2 109 -22 25 -66 24 -89 -1z m75 -29 c14 -27 -4 -71 -29 -71 -26 0 -43 32
-35 65 8 31 48 35 64 6z"/>
<path d="M5530 748 c0 -54 3 -68 15 -68 12 0 15 13 15 55 0 48 2 55 20 55 11
0 20 7 20 15 0 10 -10 14 -35 13 l-35 -1 0 -69z"/>
<path d="M5610 749 c0 -54 3 -69 14 -69 11 0 16 15 18 53 3 45 6 52 26 55 21
3 22 0 22 -52 0 -42 4 -56 14 -56 11 0 16 15 18 53 3 45 6 52 26 55 21 3 22 0
22 -52 0 -43 3 -56 15 -56 12 0 15 13 15 58 0 32 -5 63 -12 70 -15 15 -55 16
-63 2 -5 -7 -11 -8 -19 -1 -6 5 -31 10 -54 9 l-42 0 0 -69z"/>
<path d="M5836 801 c-23 -25 -12 -46 35 -64 23 -9 38 -21 34 -27 -10 -16 -43
-12 -54 8 -7 13 -13 14 -22 5 -25 -25 33 -59 75 -44 51 20 43 61 -17 85 -31
12 -38 19 -28 25 8 6 24 5 38 -2 28 -12 41 -3 23 18 -17 21 -63 19 -84 -4z"/>
</g>
</svg>
